<svg xmlns="http://www.w3.org/2000/svg" fill="none" viewBox="0 0 98 98">
  <path fill="#505256" d="M42.076 67.557c0 .06-.203.209-.472.297-.237.093-.35.053-.264-.123.183-.29.736-.41.736-.174Zm14.741-1.443c0 .357-1.524.708-3.597.85-1.174.094-2.916.269-3.826.357-2.364.269-2.155-.028.295-.472a58.965 58.965 0 0 0 2.68-.499c.5-.115.648-.062.5.175-.263.385.176.438.587.06.386-.376 3.361-.789 3.361-.471Zm12.684-1.005c0 .627-.156.743-1.478.977-.972.202-1.005.183-.438-.262.58-.478.552-.478-.15-.325-.417.088-1.774.237-3.044.325-1.47.148-2.207.29-2.093.506.156.195-.08.255-.648.107-1.024-.263-1.321-.263-3.212-.026-1.35.174-1.445.141-.91-.264.33-.27 1.005-.472 1.53-.472.535 0 1.19-.088 1.473-.209.358-.12.446-.08.297.149-.264.438.174.471.62.026.177-.175.911-.377 1.621-.437.674-.055 1.828-.148 2.53-.21.69-.087 1.337-.175 1.391-.263.088-.095.676-.148 1.33-.148.946 0 1.18.115 1.18.526Zm-56.99-4.295c.027 2.562.027 2.622-.351 1.443-.216-.647-.473-1.881-.594-2.745-.176-1.403-.142-1.558.33-1.436.5.087.554.411.615 2.738Zm8.343-.378c0 3.534-.742 6.15-2.126 7.566-.73.734-1.148.91-2.147.91-.83 0-1.478-.176-1.802-.499-.709-.742-1.56-2.738-1.357-3.264.095-.297.034-.39-.202-.242-.27.181-.331-.587-.27-3.21l.094-3.412 1.762.026c.979.034 2.45-.149 3.247-.418 2.889-.822 2.801-.91 2.801 2.543Zm54.77-6.63c-.054.412-.44.56-1.796.614-1.823.088-2.532.716-1.587 1.383.265.183.5.89.581 1.652l.121 1.301.035-1.355.053-1.362 1.27-.02c.681 0 1.417-.061 1.654-.121.613-.114 1.856 3.034 2.03 5.15.123 1.384 0 2.031-.525 3.156l-.655 1.383-1.795.21c-.973.08-2.242.175-2.83.175h-1.058l.08-3.48c.034-1.882.155-4.652.236-6.156l.183-2.705 1.796-.114c1.005-.06 1.95-.12 2.064-.155.142-.026.203.176.142.445Zm11.21-23.413c.852.851.413 2.584-1.598 6.15-1.066 1.915-2.376 4.1-2.924 4.869-1.261 1.794-3.969 3.965-3.969 3.197 0-.047.824-1.288 1.83-2.705 2.262-3.237 3.477-5.887 2.89-6.27-.595-.35-1.034.086-1.857 1.88-.392.823-1.303 2.422-2.011 3.508-1.27 1.968-1.303 1.968-1.384 1.093-.27-2.443 2.267-7.042 5.636-10.251 1.903-1.8 2.7-2.144 3.387-1.471ZM68.381 18.43c1.087.566 1.998 1.153 1.998 1.328 0 .594-1.884 1.06-4.448 1.113-1.979.06-2.627-.02-2.66-.317-.115-1.086-.141-5.124-.06-5.3.06-.121.802.317 1.654.965.829.652 2.422 1.652 3.516 2.211Zm-7.284-3.413c-.506.21-.506.27-.06.27.263.027.5.23.5.466 0 .23-.237.466-.5.466-.506.033-.506.06 0 .181.439.114.5.506.5 2.893 0 2.056.114 2.82.445 3.089.674.56 6.513.262 7.755-.385l.939-.532v10.189c0 5.631-.121 12.077-.263 14.37-.183 2.306-.439 7.31-.655 11.14l-.35 6.919-.852-.114c-.451-.06-.83-.244-.83-.358 0-.122-.35-.141-.769-.06-.554.093-.648.216-.352.39.236.142-.235.23-1.241.23-.878 0-1.438-.088-1.229-.183.175-.047.351-.263.351-.437 0-.143-.446-.02-.945.295-1.026.615-4.894 1.262-4.064.675.236-.176.852-.318 1.323-.35.736-.028.77-.088.203-.183-.553-.107-.614-.202-.317-.553.175-.236.588-.417.904-.417.297 0 .473-.142.392-.29-.122-.202-.357-.202-.708 0-.297.148-.648.176-.77.06-.143-.12-.143-.06-.034.148.297.534-.993 1.268-2.33 1.288l-1.174.06 1.033.177c.91.174.971.236.379.41-.351.156-1.352.297-2.209.392-2.004.175-4.859.587-5.892.85-1.06.27-1.06-.202-.033-.768.446-.237 1.032-.615 1.303-.851.263-.235.85-.727 1.296-1.12.439-.356.701-.647.58-.647-.203 0-2.47 1.618-3.855 2.771-.68.554-1.498.912-2.564 1.053-1.296.175-1.384.237-.506.297.945.06.924.093-.588.444-.878.204-2.092.438-2.652.561-.946.148-1.006.148-.474-.264.332-.235 1.006-.444 1.48-.471.647 0 .768-.06.41-.21-.41-.182-.032-.559 1.796-1.916 1.242-.91 2.687-2.116 3.159-2.622.473-.499-.27-.02-1.593 1.038-2.45 1.937-2.706 2.09-3.598 1.997-.35-.02-.35 0-.06.209.654.438-1.087 1.328-2.89 1.469-1.113.123-1.444.209-1.031.357.506.177.39.264-.588.561-.648.182-1.412.323-1.707.323-.859 0-.271-.594.62-.62.614 0 .669-.053.256-.236-.439-.148-.081-.506 1.776-1.794 2.504-1.733 5.98-4.417 5.98-4.592 0-.095-5.805 3.973-7.93 5.59-.56.411-1.208.768-1.412.768-.235 0-.323.116-.235.29.202.332-.507.506-3.012.71-1.74.154-2.565-.116-1.822-.587.235-.123.263-.088.142.114-.35.566.216.418 1.445-.411 1.626-1.086 8.997-6.65 8.997-6.805 0-.142-.83.42-5.609 3.884-2.032 1.478-3.969 2.72-4.361 2.745-.351 0-1.06.29-1.531.647-.562.413-1.21.594-1.823.534-.945-.088-.857-.176 2.564-2.65 1.937-1.39 4.064-3.007 4.72-3.601.647-.587-.217-.02-1.952 1.241-1.709 1.24-3.678 2.657-4.422 3.121-.708.506-1.6 1.153-1.976 1.471-.534.478-1.122.627-2.944.654-1.242.026-2.626.142-3.071.263-.473.114-.83.148-.83.053 0-.08.708-.673 1.572-1.288.817-.62 2.74-2.123 4.185-3.364 1.464-1.207 3.686-2.968 4.955-3.912 1.242-.944 2.267-1.766 2.267-1.854 0-.27-3.712 2.475-6.668 4.95-3.625 3.027-6.48 5.09-7.46 5.415-.762.23-.762.114.237-1.33.803-1.146 6.224-5.71 10.646-8.914.741-.532.741-.532-.149-.033-1.56.884-3.564 2.387-6.487 4.828-1.56 1.321-2.916 2.326-3.004 2.265-.378-.41 1.087-2.171 4.104-4.828 5.035-4.477 5.21-4.68 3.618-3.446a81.84 81.84 0 0 0-4.01 3.42c-1.417 1.267-2.706 2.292-2.916 2.292-.62 0-.087-3 .622-3.533.323-.23.938-.729 1.383-1.12.675-.586.648-.553-.35.094-.622.406-1.27.736-1.385.736-.391 0-.33-1.599.081-2.01.27-.262.27-.35 0-.35-.236 0-.35-.466-.35-1.295 0-1.269.053-1.355 4.063-5.213 2.22-2.151 3.665-3.62 3.194-3.27-.474.35-2.276 2.002-3.984 3.655-2.95 2.858-3.125 2.974-3.3 2.292-.473-1.638-.298-1.97 1.586-3.473a69.783 69.783 0 0 0 3.922-3.506c2.066-1.996 1.794-1.854-.79.357-.743.647-1.6 1.383-1.917 1.62-.331.234-1.006.8-1.54 1.232-.553.473-1.12.83-1.261.83-.156 0-.27-.357-.27-.83 0-.613.62-1.409 3.152-3.822l3.192-3.07-3.098 2.712-3.098 2.683-.21-3.627c-.472-7.742-.816-12.597-1.228-16.434-.236-2.172-.506-5.003-.628-6.238-.141-2.245-.141-2.266.648-2.738.473-.269.567-.391.237-.296-1.06.35-1.181.296-1.263-.534l-.094-.789h3.037c3.537 0 10.416-.418 18.515-1.065 21.168-1.733 20.575-1.712 19.61-1.295Zm-4.28-1.598c-2.685.216-6.513.533-8.545.716-11.055.943-15.275 1.207-22.052 1.381-5.656.149-7.512.264-7.749.561-.236.296-.236 1.03 0 2.683.176 1.262.439 3.884.614 5.833.176 1.935.44 4.708.615 6.177.391 3.304.803 10.425 1.04 18.585l.202 6.217-2.295.526c-1.654.358-3.213.474-5.427.418l-3.132-.12-.081 2.062C9.85 62.64 12.45 69.383 14.57 70.267c1.181.5 5.366.534 13.27.088 4.625-.262 5.805-.236 6.007.06.155.27.332.29.629.054.202-.174 1.97-.41 3.92-.524 1.919-.088 3.626-.265 3.775-.358.142-.08.378 0 .5.216.208.316.526.29 1.827-.095 1.858-.56 3.593-.735 3.714-.357.033.174-.06.297-.202.297-.177 0-.474.174-.648.357-.297.29-.297.383-.035.383.534 0 1.856-.916 1.681-1.179-.06-.12.762-.209 1.85-.209 1.1 0 2.72-.148 3.604-.324.892-.175 3.679-.411 6.183-.492 2.51-.121 4.658-.276 4.812-.358.142-.095 2.708-.208 5.725-.269 4.415-.06 5.595-.176 6.19-.552.992-.675 2.45-3.831 2.45-5.395 0-1.357-.831-4.128-1.837-6.063-.35-.689-.648-1.62-.674-2.15-.095-1.277-.682-1.95-1.505-1.734-.655.174-.655.141.29-2.218.979-2.388 1.006-2.416 2.895-3.42 3.186-1.673 5.537-4.613 8.993-11.242.964-1.887.943-4.51-.07-5.481-.79-.824-2.476-.979-3.556-.35-1.215.707-5.34 5.42-6.406 7.302-1.228 2.204-2.032 5.274-1.937 7.506.06 1.24-.183 2.244-1.207 4.828-1.278 3.216-1.278 3.25-2.242 3.25h-.973l.142-1.869c.35-4.794.709-15.597.709-22.32 0-8.63-.142-9.278-2.186-10.19-1.937-.849-5.414-3.297-5.623-3.917-.244-.7-.622-.7-7.818-.122Z"/>
  <path fill="#505256" d="M53.423 15.782c-6.507.715-24.233 3.007-23.281 3.033.506.028 4.125-.383 8.106-.856 3.983-.5 10.558-1.288 14.595-1.738 4.07-.467 6.715-.852 5.892-.852-.797 0-3.18.204-5.312.413ZM58.236 16.698c.202.088.471.054.56-.027.114-.093-.06-.175-.386-.156-.323 0-.411.095-.174.183ZM25.572 18.843c-.236.155-.351.33-.297.41.088.063.418-.053.709-.29.64-.438.297-.558-.412-.12ZM24.803 21.439c-1.83 1.557-3.24 2.92-3.213 2.974.175.149 1.12-.587 3.651-2.886 1.33-1.207 2.66-2.355 2.923-2.59.27-.209.392-.357.209-.357-.148 0-1.768 1.302-3.57 2.859ZM23.419 20.38c-.763.493-1.33.97-1.269 1.024.148.156 2.835-1.617 2.835-1.82 0-.208.02-.208-1.566.797ZM26.132 23.434c-.236.276-1.33 1.16-2.45 1.916-1.12.801-1.95 1.449-1.796 1.449.318 0 3.747-2.474 4.395-3.21.324-.33.5-.62.405-.62-.081 0-.345.21-.554.465ZM26.308 26.388c-.797.708-2.248 1.794-3.18 2.387-.924.587-1.62 1.12-1.539 1.207.237.237 3.126-1.8 4.867-3.418 2.005-1.854 1.884-2.003-.148-.176ZM24.83 30.36c-1.29 1.154-2.41 2.24-2.471 2.42-.06.198 1.026-.714 2.41-1.974 2.247-2.03 2.78-2.564 2.51-2.536-.06.035-1.147.944-2.45 2.09ZM56.675 29.74c-1.12.122-3.867.242-6.04.296-2.187.027-6.432.204-9.444.385-4.745.324-5.454.41-5.535.856-.06.35.142.56.641.708 1.154.264 25.212-.801 27.244-1.24.41-.088.654-.352.654-.71 0-.552-.183-.584-2.72-.53-1.504 0-3.652.12-4.8.236ZM27.9 30.537c-.384.47-.35.504.122.12.257-.209.492-.438.492-.499 0-.236-.235-.095-.613.378ZM68.934 33.456c0 .323.095.411.176.175.093-.202.06-.472-.02-.56-.096-.114-.184.06-.156.385ZM60.626 34.488c-1.621.235-11.739.796-20.311 1.112-4.308.176-4.578.216-4.578.768 0 .568.183.587 5.017.568 5.979-.035 18.602-.628 21.31-1.005 2.071-.297 2.597-.593 2.327-1.294-.195-.534-1.087-.561-3.765-.149ZM23.803 34.9c-.202.229-.263.438-.182.438.122 0 .419-.209.655-.439.256-.236.317-.445.175-.445-.155 0-.438.209-.648.445ZM67.463 34.925c0 .325.087.413.182.177.08-.202.053-.465-.035-.553-.086-.116-.174.06-.147.376ZM68.934 36.106c0 .324.095.41.176.176.093-.209.06-.466-.02-.561-.096-.121-.184.055-.156.385ZM26.456 37.199c-.742.675-1.707 1.531-2.214 1.882-.465.357-.735.673-.587.673.324 0 4.57-3.796 4.273-3.796-.088 0-.736.56-1.472 1.241ZM68.994 37.988c0 .742.055 1.037.116.647.06-.35.06-.944 0-1.322-.06-.358-.116-.06-.116.675ZM23.48 37.609c-.385.473-.351.492.121.116.257-.211.493-.439.493-.494 0-.235-.236-.093-.614.378ZM25.424 40.524c-1.445 1.38-2.39 2.386-2.06 2.211.554-.27 5.15-4.775 4.86-4.747-.087.033-1.329 1.153-2.8 2.536ZM63.007 39.78c-1.438.237-15.564.83-22.253.945-3.983.06-4.125.095-4.22.708-.088.594.06.654 2.362.829 4.72.378 24.882-.56 25.948-1.207.378-.235.255-1.214-.121-1.355-.21-.06-.98-.028-1.716.08ZM67.463 39.937c0 .316.087.41.182.174.08-.209.053-.471-.035-.56-.086-.113-.174.061-.147.386ZM69.029 46.679c0 4.04.06 5.738.081 3.763.06-1.97.06-5.267 0-7.357-.02-2.063-.081-.471-.081 3.594ZM67.463 42.579c0 .33.087.41.182.176.08-.204.053-.466-.035-.554-.086-.114-.174.06-.147.378ZM67.463 43.76c0 .33.087.411.182.175.08-.203.053-.465-.035-.553-.086-.114-.174.06-.147.378ZM25.241 44.09c-.378.473-.35.499.122.12.27-.215.506-.45.506-.505 0-.235-.236-.087-.628.385ZM23.182 45.553c-.384.451-.35.451.264.121.675-.35.83-.613.391-.613-.155 0-.452.202-.655.492ZM27.017 53.746c-1.384 1.39-2.45 2.509-2.363 2.509.115 0 1.296-1.119 2.68-2.509 1.396-1.39 2.423-2.5 2.362-2.5-.088 0-1.296 1.11-2.68 2.5ZM67.584 55.311c-.12 1.996-.148 3.682-.06 3.764.202.202.613-6.481.439-7.014-.088-.202-.265 1.24-.379 3.25ZM35.15 60.578c-.797.593-3.004 2.21-4.86 3.594-1.855 1.39-3.483 2.501-3.604 2.44-.142-.027-.203.096-.142.298.027.174-.237.41-.614.505-.392.082-.71.29-.743.472a.275.275 0 0 1-.358.202c-.142-.06-.142.055.061.27.297.29.621.115 1.62-.742.709-.593 3.132-2.468 5.4-4.208 4.043-3.068 5.13-3.917 4.86-3.917-.08 0-.79.499-1.62 1.086ZM67.435 60.875c0 .174-.297.383-.654.445-.379.06-.535.175-.379.263.176.08.588.08.945 0 .5-.149.58-.297.379-.615-.177-.276-.29-.295-.29-.093ZM62.421 61.838c-.264.183-.297.297-.081.297.174 0 .432-.142.518-.297.237-.344.123-.344-.437 0ZM54.016 62.135c-.086.176.035.216.272.123.532-.204.613-.42.202-.42a.58.58 0 0 0-.474.297ZM67.584 62.135l-1.182.216 1.087.053c.595 0 1.182-.114 1.27-.269.087-.174.147-.262.087-.262-.054.026-.62.148-1.262.262ZM65.364 62.432c-.379.236-.379.296.06.296.27 0 .588-.141.68-.296.238-.379-.148-.379-.74 0ZM64.135 62.64c.202.089.472.061.553-.032.12-.081-.054-.176-.378-.141-.33 0-.412.086-.175.174ZM57.404 63.174c-.316.378-.29.41.123.262.27-.088.472-.297.472-.438 0-.39-.176-.33-.595.176ZM65.018 63.822c.204.088.466.06.562-.035.114-.081-.06-.174-.386-.141-.33 0-.411.08-.176.176ZM56.44 64.112c-.122.093-.71.27-1.303.383-1.087.176-1.087.176-.29.358.56.115 1.026 0 1.47-.39.358-.29.562-.52.474-.553a.5.5 0 0 0-.35.202ZM83.325 34.042c-.263.33-.263.532-.033.769.404.41 1.236.088 1.236-.472 0-.593-.797-.795-1.203-.297ZM76.015 57.01c0 .331.081.412.175.183.08-.21.06-.478-.033-.56-.081-.115-.176.06-.142.377ZM73.653 58.19c0 .33.087.412.175.184.095-.21.06-.48-.026-.561-.088-.114-.177.06-.149.378ZM75.779 59.053c0 .64.053.877.114.5.062-.358.062-.892 0-1.18-.087-.264-.147.026-.114.68ZM72.539 61.838c0 1.397.046 1.95.108 1.242.06-.675.06-1.794 0-2.502-.062-.675-.108-.12-.108 1.26ZM75.42 62.02c0 .33.089.412.177.175.087-.202.06-.471-.027-.56-.089-.113-.184.061-.15.386ZM72.478 64.968c0 .323.088.418.17.181.093-.215.06-.478-.028-.566-.082-.12-.177.054-.142.385ZM19.97 58.662c-.176.533-.385 2.03-.446 3.332l-.122 2.353.27-2.353c.149-1.302.385-2.738.56-3.21.21-.472.298-.911.21-.971-.06-.06-.27.324-.473.849ZM18.85 60.08c0 .41.06.559.148.357.06-.183.06-.534 0-.742-.088-.182-.149-.026-.149.385ZM15.873 60.847c0 .325.087.41.175.176.094-.209.06-.473-.027-.566-.095-.116-.176.06-.149.39ZM13.22 62.998c-.034.945.06 1.228.296.991.203-.202.203-.613.027-1.288l-.296-1.004-.027 1.301ZM15.636 64.051c0 .648.054.882.115.506.06-.352.06-.884 0-1.18-.081-.263-.142.032-.115.674ZM15.042 65.385c0 1.052.06 1.464.122.945.054-.506.054-1.397 0-1.922-.061-.499-.122-.088-.122.977ZM25.511 79.723c.149.29.358 1.093.473 1.733l.182 1.214-1.363.202c-2.032.27-6.096.216-6.602-.114-.324-.204.115-.534 1.91-1.322 1.303-.594 2.896-1.302 3.544-1.62 1.472-.715 1.532-.715 1.856-.093Zm2.924.882c.5.944.5.972-.062 1.383-.567.41-.62.35-.918-.944a47.22 47.22 0 0 0-.533-2.117l-.202-.728.594.728c.317.411.823 1.18 1.12 1.678Zm31.831-2.683c-.08.094-.35.121-.553.033-.236-.088-.155-.174.177-.174.316-.035.499.06.376.141Zm8.054-2.144c0 .27-.83.586-2.308.882-3.154.675-3.26.594-.493-.383 2.801-1 2.801-1 2.801-.499Zm-11.914-2.765c-.088.114-1.742 1.288-3.679 2.562-1.95 1.262-3.489 2.347-3.395 2.44.062.089 1.918-1.058 4.091-2.561 4.434-3.007 5.487-3.007 1.715-.033-2.769 2.184-2.592 2.035-2.27 2.035.15 0 1.183-.735 2.302-1.617 2-1.599 2.708-1.8 2.45-.715-.093.33-.032.513.117.39.438-.27.29.411-.21.877-.615.627-1.181.627-.675-.027.237-.27-.121-.114-.804.324-.736.471-1.7.822-2.504.884-.701.06-1.498.174-1.734.27-1.006.377-3.895.816-4.334.673-.27-.121-.681 0-.945.236-.27.237-1.532.615-2.834.85-5.712 1.1-9.613 1.74-9.727 1.619-.082-.06.506-.58 1.275-1.167.762-.594 1.7-1.457 2.113-1.896.418-.436-.055-.141-1.06.654-2.41 2.005-3.599 2.678-4.98 2.94-1.088.176-.913.035 1.976-1.914 1.742-1.146 3.24-2.265 3.356-2.441.12-.181-1.203.682-2.945 1.854-2.564 1.768-3.212 2.09-3.414 1.733-.446-.7-.412-.728 1.76-2.232 1.129-.768 2.012-1.443 1.951-1.536-.093-.056-1.031.505-2.125 1.274-1.883 1.327-1.998 1.382-2.39.849-1.087-1.436-1.052-1.531.534-1.854 2.03-.445 2.065-.41.627.438-.708.418-1.214.83-1.16.91.094.06.863-.317 1.748-.91.85-.587 1.916-1.06 2.355-1.06.44 0 1.384-.12 2.065-.295.703-.141 2.648-.493 4.362-.756 1.707-.236 5.014-.829 7.363-1.334 2.364-.473 4.874-.912 5.603-.972 1.067-.114 2.6-.439 3.475-.729.063-.032.042.081-.053.237Zm8.377-3.487c-.884.331-4.334 1.039-7.669 1.633a435.187 435.187 0 0 0-10.46 1.881c-2.425.465-6.61 1.2-9.296 1.646-7.601 1.206-11.759 2.116-12.555 2.744-.385.29-2.127 1.166-3.861 1.936-1.742.768-3.598 1.773-4.158 2.244-.642.554-1.296.85-1.917.85-1.148 0-2.12.628-1.917 1.208.155.47 1.68.559 9.821.647 3.652.033 5.508-.06 5.96-.325.345-.174 1.938-.524 3.53-.76 3.976-.56 12.852-2.186 14.83-2.685.884-.202 3.153-.674 5.009-1.024 1.856-.36 4.043-.83 4.84-1.067 2.004-.552 2.362-.532 1.654.183-.716.701-.771 1.557-.123 2.205.77.735 1.735.473 1.735-.532-.02-.884-.142-.823 4.132-1.768 1.147-.262 2.538-.56 3.098-.64 1.614-.33 2.301-.924 2.504-2.124.095-.621.378-1.477.615-1.916.917-1.712.235-4.058-1.384-4.626-1.324-.437-2.504-.384-4.388.29Z"/>
  <path fill="#505256" d="M51.81 74.71c-2.181 1.444-4.483 3.367-4.274 3.57.081.092.588-.237 1.115-.736.506-.506 1.809-1.531 2.861-2.3 2.065-1.503 2.242-1.619 2.032-1.619-.06 0-.85.473-1.734 1.086Z"/>
</svg>
