<svg xmlns="http://www.w3.org/2000/svg" version="1.1" xmlns:xlink="http://www.w3.org/1999/xlink" width="1000" height="1000"><svg width="1000" height="1000" viewBox="0 0 1000 1000" fill="none" xmlns="http://www.w3.org/2000/svg">
<rect width="1000" height="1000" fill="#181818"></rect>
<path d="M370 778.75V759.2L463.5 746.45H536.6L629.25 759.2V778.75H370ZM429.5 778.75C430.633 756.65 431.483 730.867 432.05 701.4C433.183 671.367 433.75 640.2 433.75 607.9C434.317 575.6 434.6 545 434.6 516.1V479.55C434.6 450.65 434.317 420.617 433.75 389.45C433.75 358.283 433.467 328.25 432.9 299.35C432.333 270.45 431.483 244.667 430.35 222H569.75C568.617 244.667 567.767 270.45 567.2 299.35C566.633 328.25 566.067 358.283 565.5 389.45C565.5 420.617 565.5 450.65 565.5 479.55V516.1C565.5 545 565.5 575.6 565.5 607.9C566.067 640.2 566.633 671.367 567.2 701.4C567.767 730.867 568.617 756.65 569.75 778.75H429.5ZM268 387.75L278.2 222H721.9L732.1 387.75H712.55L644.55 232.2L675.15 245.8H324.95L355.55 232.2L287.55 387.75H268Z" fill="white"></path>
</svg><style>@media (prefers-color-scheme: light) { :root { filter: none; } }
@media (prefers-color-scheme: dark) { :root { filter: none; } }
</style></svg>