<svg width="864" height="864" viewBox="0 0 864 864" fill="none" xmlns="http://www.w3.org/2000/svg">
<rect width="864" height="864" fill="#101010"/>
<path d="M276.23 641.34C244.717 641.34 218.037 635.25 196.19 623.07C174.537 610.89 157.04 594.747 143.7 574.64C130.553 554.34 120.983 531.817 114.99 507.07C108.997 482.323 106 457.287 106 431.96C106 407.987 108.997 383.723 114.99 359.17C121.177 334.423 130.94 311.707 144.28 291.02C157.813 270.14 175.407 253.417 197.06 240.85C218.713 228.283 245.103 222 276.23 222C301.943 222 324.273 226.35 343.22 235.05C362.167 243.557 377.827 254.673 390.2 268.4C402.767 281.933 412.337 296.143 418.91 311.03L351.63 342.35C345.057 332.297 338.29 323.693 331.33 316.54C324.37 309.193 316.443 303.587 307.55 299.72C298.85 295.66 288.41 293.63 276.23 293.63C258.83 293.63 244.233 297.883 232.44 306.39C220.647 314.703 211.173 325.723 204.02 339.45C196.867 353.177 191.743 368.16 188.65 384.4C185.557 400.64 184.01 416.493 184.01 431.96C184.01 448.393 185.75 464.73 189.23 480.97C192.71 497.21 198.22 512 205.76 525.34C213.3 538.68 222.87 549.41 234.47 557.53C246.07 565.457 259.99 569.42 276.23 569.42C293.63 569.42 308.227 564.587 320.02 554.92C332.007 545.06 342.64 532.493 351.92 517.22L420.65 543.03C411.95 561.783 401.027 578.603 387.88 593.49C374.733 608.377 358.977 620.073 340.61 628.58C322.243 637.087 300.783 641.34 276.23 641.34Z" fill="#D21545"/>
<path d="M488.66 634.96V228.96H758.65V300.3H563.77V389.62H688.47V460.96H563.77V634.96H488.66Z" fill="white"/>
</svg>
