<?xml version="1.0" standalone="no"?>
<!DOCTYPE svg PUBLIC "-//W3C//DTD SVG 20010904//EN"
 "http://www.w3.org/TR/2001/REC-SVG-20010904/DTD/svg10.dtd">
<svg version="1.0" xmlns="http://www.w3.org/2000/svg"
 width="700.000000pt" height="700.000000pt" viewBox="0 0 700.000000 700.000000"
 preserveAspectRatio="xMidYMid meet">
<metadata>
Created by potrace 1.14, written by Peter Selinger 2001-2017
</metadata>
<g transform="translate(0.000000,700.000000) scale(0.100000,-0.100000)"
fill="#000000" stroke="none">
<path d="M1777 5624 c-1 -1 -31 -4 -67 -8 -313 -30 -560 -129 -799 -320 -255
-204 -459 -518 -585 -898 -19 -59 -73 -271 -80 -318 -3 -19 -10 -57 -16 -85
-41 -195 -50 -609 -19 -860 23 -190 23 -186 54 -335 25 -118 89 -329 120 -396
8 -16 28 -61 45 -100 80 -178 196 -348 326 -479 100 -102 123 -121 231 -194
272 -184 561 -262 953 -256 254 4 437 40 618 121 57 26 214 113 222 123 3 4
18 15 34 25 116 74 298 271 411 446 74 113 158 270 150 278 -3 3 -20 11 -38
17 -17 7 -86 32 -152 58 -218 83 -497 187 -500 187 -2 0 -18 -24 -36 -52 -123
-195 -310 -369 -458 -428 -79 -31 -200 -48 -309 -45 -99 4 -105 5 -182 24
-217 56 -410 235 -539 501 -23 47 -48 103 -56 125 -8 22 -21 58 -29 80 -32 89
-70 287 -86 442 -8 87 -6 435 4 483 3 14 8 48 11 75 19 170 81 394 151 543
120 254 298 422 519 489 70 21 86 23 215 28 103 3 140 0 245 -20 54 -11 209
-93 271 -144 63 -52 164 -167 229 -261 22 -30 40 -57 41 -59 5 -6 179 72 504
227 41 19 77 36 80 37 25 8 100 46 100 50 0 16 -75 153 -121 222 -131 193
-296 353 -476 460 -199 118 -375 176 -633 209 -48 6 -347 13 -353 8z"/>
<path d="M4074 5551 c-7 -8 -4 -4111 4 -4112 4 -1 174 -2 379 -3 323 -1 372 1
375 14 2 8 3 405 3 883 l-1 867 46 1 c25 0 309 0 633 0 l587 1 -2 361 -3 362
-630 0 -631 0 0 453 0 452 51 0 c27 1 472 1 988 1 l937 0 0 362 0 363 -1366 0
c-751 0 -1367 -2 -1370 -5z"/>
</g>
</svg>
